HIERARCHY
ROOT Hips
{
	OFFSET 0.0000 0.0000 0.0000
	CHANNELS 6 Xposition Yposition Zposition Zrotation Xrotation Yrotation
	JOINT Ab
	{
		OFFSET -0.0000 8.1305 -0.0000
		CHANNELS 3 Zrotation Xrotation Yrotation
		JOINT Chest
		{
			OFFSET -0.0000 26.2902 -0.0000
			CHANNELS 3 Zrotation Xrotation Yrotation
			JOINT Neck
			{
				OFFSET -0.0000 26.2902 0.0000
				CHANNELS 3 Zrotation Xrotation Yrotation
				JOINT Head
				{
					OFFSET -0.0000 10.8167 0.0000
					CHANNELS 3 Zrotation Xrotation Yrotation
					End Site
					{
						OFFSET -0.0000 16.7167 0.0000
					}
				}
			}
			JOINT LeftCollar
			{
				OFFSET -0.0000 26.2902 0.0000
				CHANNELS 3 Zrotation Xrotation Yrotation
				JOINT LeftShoulder
				{
					OFFSET 19.6667 -0.0000 0.0000
					CHANNELS 3 Zrotation Xrotation Yrotation
					JOINT LeftElbow
					{
						OFFSET 27.2190 0.0000 0.0000
						CHANNELS 3 Zrotation Xrotation Yrotation
						JOINT LeftWrist
						{
							OFFSET 30.7431 0.0000 0.0000
							CHANNELS 3 Zrotation Xrotation Yrotation
							End Site
							{
								OFFSET 0.0000 -14.7500 0.0000
							}
						}
					}
				}
			}
			JOINT RightCollar
			{
				OFFSET -0.0000 26.2902 0.0000
				CHANNELS 3 Zrotation Xrotation Yrotation
				JOINT RightShoulder
				{
					OFFSET -19.6667 0.0000 0.0000
					CHANNELS 3 Zrotation Xrotation Yrotation
					JOINT RightElbow
					{
						OFFSET -27.2190 0.0000 0.0000
						CHANNELS 3 Zrotation Xrotation Yrotation
						JOINT RightWrist
						{
							OFFSET -30.7431 0.0000 0.0000
							CHANNELS 3 Zrotation Xrotation Yrotation
							End Site
							{
								OFFSET -0.0000 -14.7500 0.0000
							}
						}
					}
				}
			}
		}
	}
	JOINT LeftHip
	{
		OFFSET 11.8000 0.0000 0.0000
		CHANNELS 3 Zrotation Xrotation Yrotation
		JOINT LeftKnee
		{
			OFFSET -0.0000 -39.7832 0.0000
			CHANNELS 3 Zrotation Xrotation Yrotation
			JOINT LeftAnkle
			{
				OFFSET -0.0000 -41.7317 0.0000
				CHANNELS 3 Zrotation Xrotation Yrotation
				End Site
				{
					OFFSET -0.0000 -4.9167 16.7167
				}
			}
		}
	}
	JOINT RightHip
	{
		OFFSET -11.8000 0.0000 0.0000
		CHANNELS 3 Zrotation Xrotation Yrotation
		JOINT RightKnee
		{
			OFFSET -0.0000 -39.7832 0.0000
			CHANNELS 3 Zrotation Xrotation Yrotation
			JOINT RightAnkle
			{
				OFFSET -0.0000 -41.7317 0.0000
				CHANNELS 3 Zrotation Xrotation Yrotation
				End Site
				{
					OFFSET -0.0000 -4.9167 16.7167
				}
			}
		}
	}
}
MOTION
Frames: 7
Frame Time: 0.010000
-9.1766 86.6158 100.2323 353.9871 342.3882 199.3091 1.6038 349.1853 358.0158 359.8955 21.7109 357.8857 346.1600 346.5301 351.9795 2.7308 10.4280 353.3578 338.7185 357.2625 14.4267 340.3043 59.9326 316.5892 22.0942 346.6338 298.7865 97.0977 350.0939 359.2489 24.5749 356.1573 342.8695 48.6363 47.5406 3.7936 323.7727 338.7347 57.8676 263.7620 348.2107 345.0655 355.3456 5.2354 1.8704 358.1398 9.4851 2.1460 346.7500 344.5768 11.0673 328.8546 318.2154 353.6255 23.1933 39.8756 7.5877 352.0907 344.6130 311.8636 
-8.9587 86.6378 99.7182 354.0395 342.1600 199.4885 1.7747 349.0919 358.0355 0.0567 21.7723 357.8592 346.1797 346.5399 351.9068 2.7942 10.3300 353.2808 338.7610 357.2908 14.3962 340.2369 60.0946 316.4558 22.1444 346.5754 298.7280 96.6875 349.9445 358.8664 24.6568 356.1646 342.9110 48.0065 47.9126 4.5078 323.3829 338.8132 57.0806 263.6422 348.2925 344.8652 355.5126 4.9428 1.8871 358.2177 10.0341 2.0761 346.2596 344.8388 11.0519 328.9845 318.0157 353.4394 23.2428 40.4946 7.6087 351.6295 344.6029 311.6771 
-8.7362 86.6605 99.2027 354.0765 341.9580 199.6625 1.9054 349.0339 358.0452 0.2542 21.7882 357.8174 346.1575 346.6472 351.8449 2.9201 10.1485 353.2054 338.7915 357.2902 14.3860 340.2632 60.3481 316.1999 22.3103 346.4546 298.7845 96.0293 349.8187 358.4547 24.7604 356.1844 343.0228 47.4057 48.1098 5.1367 323.0907 338.9546 56.3097 263.4269 348.2190 345.0145 355.6920 4.6457 1.8679 358.2783 10.6139 1.9864 345.8631 345.1119 11.0859 329.1883 317.9190 353.8669 23.6276 40.7571 7.0615 351.1007 344.6132 311.4404 
-8.5162 86.7006 98.6577 354.0592 341.8491 199.7984 1.9711 349.0312 358.0650 0.4629 21.8240 357.7918 346.0523 346.8408 351.7506 3.2558 9.9990 353.0764 338.8973 357.3081 14.4169 340.3922 60.7111 315.7754 22.5851 346.2422 298.7678 95.9474 349.8369 358.6860 24.8324 356.1817 343.1076 46.8523 48.5085 5.7565 322.5134 338.9014 55.4808 263.1560 348.5368 344.4649 355.8626 4.4309 1.8966 358.3129 11.2213 2.0145 345.4798 345.4657 11.0387 329.4569 317.9640 353.8497 23.6094 41.1897 7.3024 350.6921 344.3851 311.1002 
-8.2986 86.7559 98.1115 354.0195 341.7680 199.9243 1.9926 349.0651 358.0946 0.7101 21.8235 357.7751 346.0323 347.0618 351.6905 3.4735 9.7832 352.9813 338.8772 357.3076 14.4190 340.5175 60.8626 315.5905 22.5727 346.2198 298.5084 96.6382 349.7840 359.4666 24.9024 356.1980 343.1924 46.3237 48.7443 6.3224 322.0762 338.9483 54.7182 262.7523 348.8424 344.4147 356.0238 4.2186 1.8508 358.3321 11.8622 2.3400 345.1531 345.9152 10.7728 329.7379 318.0998 353.8120 23.5484 41.5435 7.5918 350.3381 344.0732 310.7888 
-8.0891 86.8327 97.5779 353.9756 341.6790 200.0681 2.0195 349.0894 358.1186 0.9166 21.8070 357.7562 346.1158 347.2109 351.6394 3.5452 9.6798 352.8997 338.9917 357.3349 14.4362 340.7198 61.2853 315.0470 22.9107 345.9022 298.5785 96.6730 349.7070 359.6803 24.9545 356.2098 343.2773 45.9005 49.0440 6.8373 321.4474 338.9329 53.8301 262.5432 348.9490 343.9597 356.1600 3.9317 1.8016 358.3528 12.5735 2.8495 344.9322 346.4762 10.3503 329.9824 318.3016 353.6786 23.4114 41.8200 7.9344 350.0576 343.6815 310.5167 
-7.9114 86.9296 97.0421 353.8968 341.6285 200.2302 2.0871 349.0907 358.1336 0.9795 21.8672 357.7505 346.4233 347.2675 351.5799 3.4025 9.6589 352.8051 339.3024 357.3690 14.5002 341.2006 61.8623 314.0735 23.5177 345.4474 298.8277 96.5542 349.4586 359.9243 24.9939 356.2361 343.3816 45.5919 49.0696 7.2412 320.9752 339.0279 53.1571 262.3956 349.1512 343.4506 356.2407 3.6605 1.6798 358.5689 13.5513 2.5633 344.1650 346.6888 10.4232 330.1714 318.6756 353.5164 23.2765 41.9565 8.2808 349.7900 343.2938 310.3391 
